<?xml version="1.0" encoding="UTF-8" standalone="no"?>
<!-- Created with Inkscape (http://www.inkscape.org/) -->

<svg
   xmlns:dc="http://purl.org/dc/elements/1.1/"
   xmlns:cc="http://creativecommons.org/ns#"
   xmlns:rdf="http://www.w3.org/1999/02/22-rdf-syntax-ns#"
   xmlns:svg="http://www.w3.org/2000/svg"
   xmlns="http://www.w3.org/2000/svg"
   xmlns:sodipodi="http://sodipodi.sourceforge.net/DTD/sodipodi-0.dtd"
   xmlns:inkscape="http://www.inkscape.org/namespaces/inkscape"
   width="24"
   height="24"
   id="svg4458"
   version="1.1"
   inkscape:version="0.48.4 r9939"
   inkscape:export-filename="/srv/svn/trusty/lmd/trunk/fuentes/lmd-manager-gui.install/usr/share/lmd-gui/css/img/advanced.png"
   inkscape:export-xdpi="90"
   inkscape:export-ydpi="90"
   sodipodi:docname="moreicons.svg">
  <defs
     id="defs4460" />
  <sodipodi:namedview
     id="base"
     pagecolor="#ffffff"
     bordercolor="#666666"
     borderopacity="1.0"
     inkscape:pageopacity="0.0"
     inkscape:pageshadow="2"
     inkscape:zoom="7.9195959"
     inkscape:cx="7.961875"
     inkscape:cy="1.8473092"
     inkscape:document-units="px"
     inkscape:current-layer="capa1"
     showgrid="false"
     inkscape:window-width="1280"
     inkscape:window-height="963"
     inkscape:window-x="0"
     inkscape:window-y="37"
     inkscape:window-maximized="1" />
  <metadata
     id="metadata4463">
    <rdf:RDF>
      <cc:Work
         rdf:about="">
        <dc:format>image/svg+xml</dc:format>
        <dc:type
           rdf:resource="http://purl.org/dc/dcmitype/StillImage" />
        <dc:title></dc:title>
      </cc:Work>
    </rdf:RDF>
  </metadata>
  <g
     inkscape:label="Capa 1"
     inkscape:groupmode="layer"
     id="capa1"
     transform="translate(0,-1028.3622)">
    <path
       sodipodi:type="arc"
       style="fill:#b9b9b9;fill-opacity:1;stroke:#000000;stroke-width:0.5;stroke-miterlimit:4;stroke-opacity:1;stroke-dasharray:none"
       id="path4470"
       sodipodi:cx="12.410714"
       sodipodi:cy="6.4107141"
       sodipodi:rx="2.7678571"
       sodipodi:ry="2.7678571"
       d="m 15.178571,6.4107141 a 2.7678571,2.7678571 0 1 1 -5.5357139,0 2.7678571,2.7678571 0 1 1 5.5357139,0 z"
       transform="matrix(-0.01622921,0.9998683,-0.9998683,-0.01622921,42.619728,1028.4707)"
       inkscape:export-filename="/srv/svn/trusty/lmd/trunk/fuentes/lmd-manager-gui.install/usr/share/lmd-gui/css/img/path4470-0-1.png"
       inkscape:export-xdpi="90"
       inkscape:export-ydpi="90" />
    <path
       sodipodi:type="arc"
       style="fill:#b9b9b9;fill-opacity:1;stroke:#000000;stroke-width:0.5;stroke-miterlimit:4;stroke-opacity:1;stroke-dasharray:none"
       id="path4470-0"
       sodipodi:cx="12.410714"
       sodipodi:cy="6.4107141"
       sodipodi:rx="2.7678571"
       sodipodi:ry="2.7678571"
       d="m 15.178571,6.4107141 a 2.7678571,2.7678571 0 1 1 -5.5357139,0 2.7678571,2.7678571 0 1 1 5.5357139,0 z"
       transform="matrix(-0.0219263,1.3508614,-1.3508614,-0.0219263,25.767933,1022.0538)"
       inkscape:export-filename="/srv/svn/trusty/lmd/trunk/fuentes/lmd-manager-gui.install/usr/share/lmd-gui/css/img/path4470-0-1.png"
       inkscape:export-xdpi="90"
       inkscape:export-ydpi="90" />
    <path
       sodipodi:type="arc"
       style="fill:#696969;fill-opacity:1;stroke:#000000;stroke-width:0.50000000000000000;stroke-miterlimit:4;stroke-opacity:1;stroke-dasharray:none"
       id="path4470-0-1"
       sodipodi:cx="12.410714"
       sodipodi:cy="6.4107141"
       sodipodi:rx="2.7678571"
       sodipodi:ry="2.7678571"
       d="m 15.178571,6.4107141 a 2.7678571,2.7678571 0 1 1 -5.5357139,0 2.7678571,2.7678571 0 1 1 5.5357139,0 z"
       transform="matrix(-0.0219263,1.3508614,-1.3508614,-0.0219263,15.455591,1022.0538)"
       inkscape:export-filename="/srv/svn/trusty/lmd/trunk/fuentes/lmd-manager-gui.install/usr/share/lmd-gui/css/img/path4470-0-1.png"
       inkscape:export-xdpi="90"
       inkscape:export-ydpi="90" />
    <text
       xml:space="preserve"
       style="font-size:22.46173477px;font-style:normal;font-variant:normal;font-weight:500;font-stretch:normal;line-height:125%;letter-spacing:0px;word-spacing:0px;fill:#555555;fill-opacity:1;stroke:none;font-family:TlwgMono;-inkscape-font-specification:TlwgMono Medium"
       x="-38.833855"
       y="1014.5817"
       id="text5016"
       sodipodi:linespacing="125%"><tspan
         sodipodi:role="line"
         id="tspan5018"
         x="-38.833855"
         y="1014.5817"
         style="font-size:14px;font-style:normal;font-variant:normal;font-weight:bold;font-stretch:normal;fill:#555555;font-family:Roboto;-inkscape-font-specification:Roboto Bold">Adv</tspan></text>
    <path
       style="fill:#7d7d7d;fill-opacity:1;stroke:none"
       d="m -50.418718,1038.1348 c -1.649428,0 -2.979383,0.9907 -2.979383,2.2195 l 0,2.2661 c 0,0.049 0.02723,0.092 0.03136,0.1402 l 7.275967,0 c 0.0041,-0.048 0.03136,-0.091 0.03136,-0.1402 l 0,-2.2661 c 0,-1.2288 -1.329955,-2.2195 -2.979383,-2.2195 l -1.379925,0 z m 7.526863,0 c -1.649429,0 -2.979384,0.9907 -2.979384,2.2195 l 0,2.2661 c 0,0.049 0.02723,0.092 0.03136,0.1402 l 7.275967,0 c 0.0041,-0.048 0.03136,-0.091 0.03136,-0.1402 l 0,-2.2661 c 0,-1.2288 -1.329955,-2.2195 -2.979383,-2.2195 l -1.379924,0 z m 7.4955,0 c -1.649428,0 -2.979383,0.9907 -2.979383,2.2195 l 0,2.2661 c 0,0.049 0.02723,0.092 0.03136,0.1402 l 7.275966,0 c 0.0041,-0.048 0.03136,-0.091 0.03136,-0.1402 l 0,-2.2661 c 0,-1.2288 -1.329955,-2.2195 -2.979383,-2.2195 l -1.379924,0 z"
       id="rect5065"
       inkscape:connector-curvature="0" />
  </g>
</svg>
