<?xml version="1.0" encoding="UTF-8" standalone="no"?>
<svg
   xmlns:dc="http://purl.org/dc/elements/1.1/"
   xmlns:cc="http://creativecommons.org/ns#"
   xmlns:rdf="http://www.w3.org/1999/02/22-rdf-syntax-ns#"
   xmlns:svg="http://www.w3.org/2000/svg"
   xmlns="http://www.w3.org/2000/svg"
   xmlns:sodipodi="http://sodipodi.sourceforge.net/DTD/sodipodi-0.dtd"
   xmlns:inkscape="http://www.inkscape.org/namespaces/inkscape"
   viewBox="0 0 512 512"
   width="512"
   height="512"
   id="svg2"
   version="1.1"
   inkscape:version="0.48.4 r9939"
   sodipodi:docname="octocat-spinner-smil.min.svg">
  <metadata
     id="metadata42">
    <rdf:RDF>
      <cc:Work
         rdf:about="">
        <dc:format>image/svg+xml</dc:format>
        <dc:type
           rdf:resource="http://purl.org/dc/dcmitype/StillImage" />
        <dc:title></dc:title>
      </cc:Work>
    </rdf:RDF>
  </metadata>
  <defs
     id="defs40">
    <inkscape:perspective
       sodipodi:type="inkscape:persp3d"
       inkscape:vp_x="0 : 256 : 1"
       inkscape:vp_y="0 : 1000 : 0"
       inkscape:vp_z="512 : 256 : 1"
       inkscape:persp3d-origin="256 : 170.66667 : 1"
       id="perspective3825" />
    <clipPath
       clipPathUnits="userSpaceOnUse"
       id="clipPath4522">
      <path
         inkscape:connector-curvature="0"
         style="fill:#414141"
         d="m 164.34795,1268.2337 c -1.91871,0.1049 -3.34096,2.8217 -3.88413,3.8532 -0.6685,1.271 -2.2411,5.0222 0.3391,6.3195 2.5802,1.2974 5.76542,-1.2026 6.65851,-2.8977 0.94991,-1.8034 1.36256,-4.9388 -1.72628,-6.8743 -0.48924,-0.3065 -0.9444,-0.4248 -1.3872,-0.4007 z m -39.14959,0.4624 c -3.24895,-0.046 -6.19235,0.292 -8.84718,0.9247 -6.71951,1.6981 -11.56154,5.1201 -15.04331,8.9397 -0.77092,-0.4257 -2.015351,-1.5583 -2.373651,-1.9112 -0.43728,-0.4321 -0.943279,-0.4586 -1.479659,-0.185 -0.536389,0.2735 -0.739842,2.6821 -0.739842,2.6821 -0.224594,-0.063 -1.027839,-1.3548 -1.387189,-1.8805 -0.359354,-0.5272 -1.835492,0.077 -2.065366,0.5855 -1.097035,2.4373 -0.640036,5.772 -0.09255,8.1383 -4.362729,-1.7894 -13.027381,-2.8139 -16.677113,6.5662 -1.625016,4.1774 0.0298,10.7148 5.425452,13.6252 3.026257,1.6347 7.550614,2.3776 12.423066,0.1548 6.602472,11.9149 21.239922,15.0407 30.949752,15.1666 9.7329,0.1264 17.76742,-5.2148 23.92132,-12.0531 10.04865,-11.1624 14.70423,-26.7575 14.70423,-26.7575 -16.40468,-10.186 -28.97116,-13.8546 -38.71802,-13.9951 z"
         id="path4524" />
    </clipPath>
    <filter
       color-interpolation-filters="sRGB"
       inkscape:collect="always"
       id="filter4514">
      <feGaussianBlur
         inkscape:collect="always"
         stdDeviation="0.72766568"
         id="feGaussianBlur4516" />
    </filter>
  </defs>
  <sodipodi:namedview
     pagecolor="#ffffff"
     bordercolor="#666666"
     borderopacity="1"
     objecttolerance="10"
     gridtolerance="10"
     guidetolerance="10"
     inkscape:pageopacity="0"
     inkscape:pageshadow="2"
     inkscape:window-width="1280"
     inkscape:window-height="963"
     id="namedview38"
     showgrid="false"
     inkscape:zoom="0.4609375"
     inkscape:cx="202.77719"
     inkscape:cy="62.388847"
     inkscape:window-x="0"
     inkscape:window-y="37"
     inkscape:window-maximized="1"
     inkscape:current-layer="svg2" />
  <path
     style="fill:#f1f9fb;fill-opacity:1;stroke:none"
     d="m 254.21875,6.15625 c -28.0048,0 -54.9327,4.586264 -80.09375,13.03125 l 27.1875,68.9375 c 16.70817,-5.204026 34.48494,-8.03125 52.90625,-8.03125 20.53388,0 40.24615,3.499401 58.59375,9.90625 l 29.5,-67.96875 C 314.89372,11.775595 285.21715,6.15625 254.21875,6.15625 z"
     id="path3916" />
  <path
     style="fill:#d3ecf1;fill-opacity:1;stroke:none"
     d="M 149.875,28.75 C 97.385737,52.708924 54.577189,94.200889 28.90625,145.71875 l 67.96875,29.5 c 17.69394,-33.66417 45.85767,-60.95584 80.1875,-77.53125 L 149.875,28.75 z"
     id="path3914" />
  <path
     style="fill:#328da2;fill-opacity:1;stroke:none"
     d="m 366.25,32.4375 -29.5,67.9375 c 33.66449,17.68756 60.9528,45.86533 77.53125,80.1875 L 483.1875,153.40625 C 459.234,100.91699 417.76057,58.108439 366.25,32.4375 z"
     id="path3912" />
  <path
     style="fill:#b4dee8;fill-opacity:1;stroke:none"
     d="M 18.53125,169.625 C 8.266645,197.05738 2.625,226.73741 2.625,257.75 c 0,28.0048 4.5862639,54.93472 13.03125,80.09375 L 84.5625,310.625 c -5.196469,-16.69715 -8,-34.46761 -8,-52.875 0,-20.54722 3.490721,-40.26874 9.90625,-58.625 l -67.9375,-29.5 z"
     id="path3910" />
  <path
     style="fill:#3ba9c1;fill-opacity:1;stroke:none"
     d="m 492.75,177.65625 -68.90625,27.1875 c 5.20403,16.70817 8.03125,34.48494 8.03125,52.90625 0,20.54722 -3.49072,40.26874 -9.90625,58.625 l 67.9375,29.5 c 10.26023,-27.4278 15.875,-57.11438 15.875,-88.125 0,-28.0048 -4.58829,-54.9327 -13.03125,-80.09375 z"
     id="path3908" />
  <path
     style="fill:#96d1de;fill-opacity:1;stroke:none"
     d="m 94.15625,334.90625 -68.9375,27.1875 c 23.958924,52.48384 65.450889,95.27385 116.96875,120.9375 l 29.5,-67.9375 c -33.66417,-17.69394 -60.95584,-45.85767 -77.53125,-80.1875 z"
     id="path3906" />
  <path
     style="fill:#58b6cc;fill-opacity:1;stroke:none"
     d="m 411.5625,340.28125 c -17.69394,33.66417 -45.85767,60.95584 -80.1875,77.53125 l 27.1875,68.90625 c 52.48384,-23.9535 95.27385,-65.42693 120.9375,-116.9375 l -67.9375,-29.5 z"
     id="path3904" />
  <path
     style="fill:#77c3d5;fill-opacity:1;stroke:none"
     d="m 195.59375,425.5 -29.5,67.9375 c 27.43093,10.26023 57.11438,15.875 88.125,15.875 28.0048,0 54.93472,-4.58829 80.09375,-13.03125 L 307.125,427.375 c -16.70817,5.20403 -34.48494,8.03125 -52.90625,8.03125 -20.54722,0 -40.26874,-3.49072 -58.625,-9.90625 z"
     id="path3037" />
  <g
     id="g3019"
     transform="matrix(0.99813931,0,0,1,-696.31172,14.123114)">
    <path
       id="path4"
       transform="matrix(0.70710678,0.70710678,-0.70710678,0.70710678,190.66663,-267.93295)"
       d="m 332.28943,87.087219 c 60.03329,-20 114,-21 172,1.047241 l -11.4036,32.85095 c -43.33334,-15 -104,-15 -148,0"
       inkscape:connector-curvature="0"
       style="fill:#333333">
      <animate
         id="animate6"
         repeatCount="indefinite"
         dur="1s"
         begin="0s"
         values="#333;#eee;#333;#333"
         attributeName="fill" />
    </path>
    <path
       id="path8"
       transform="matrix(0,1,-1,0,740.485,-229.505)"
       d="m 398.52747,246.3886 c 60.03332,-20 114,-21 172,1.04724 L 559.1239,280.2868 c -43.33337,-15 -104,-15 -148,0"
       inkscape:connector-curvature="0"
       style="fill:#333333">
      <animate
         id="animate10"
         repeatCount="indefinite"
         dur="1s"
         begin="0.125s"
         values="#333;#eee;#333;#333"
         attributeName="fill" />
    </path>
    <path
       id="path12"
       transform="matrix(-0.70710678,0.70710678,-0.70710678,-0.70710678,1005.9184,411.18496)"
       d="m 331.33221,404.82367 c 60.03333,-20 114,-21 172,1.04724 l -11.40353,32.85095 c -43.3334,-15 -104,-15 -148,0"
       inkscape:connector-curvature="0"
       style="fill:#333333">
      <animate
         id="animate14"
         repeatCount="indefinite"
         dur="1s"
         begin="0.250s"
         values="#333;#eee;#333;#333"
         attributeName="fill" />
    </path>
    <path
       id="path16"
       transform="matrix(-1,0,0,-1,516.1,958.85)"
       d="m 171.58223,470.32367 c 60.03331,-20 114,-21 172,1.04724 l -11.40353,32.85095 c -43.33341,-15 -104,-15 -148,0"
       inkscape:connector-curvature="0"
       style="fill:#333333">
      <animate
         id="animate18"
         repeatCount="indefinite"
         dur="1s"
         begin="0.375s"
         values="#333;#eee;#333;#333"
         attributeName="fill" />
    </path>
    <path
       id="path20"
       transform="matrix(-0.70710678,-0.70710678,0.70710678,-0.70710678,-123.63058,779.14054)"
       d="m 13.0822,406.074 c 60.033301,-20 114,-21 172,1.047 l -11.40401,32.85098 c -43.33299,-15 -103.999997,-15 -147.999997,0"
       inkscape:connector-curvature="0"
       style="fill:#333333">
      <animate
         id="animate22"
         repeatCount="indefinite"
         dur="1s"
         begin="0.500s"
         values="#333;#eee;#333;#333"
         attributeName="fill" />
    </path>
    <path
       id="path24"
       transform="matrix(0,-1,1,0,-223.439,288.947)"
       d="m -53.713486,247.09155 c 60.03331,-20 114,-21 171.999996,1.047 l -11.40402,32.85098 c -43.332975,-15 -103.999998,-15 -147.999998,0"
       inkscape:connector-curvature="0"
       style="fill:#333333">
      <animate
         id="animate26"
         repeatCount="indefinite"
         dur="1s"
         begin="0.625s"
         values="#333;#eee;#333;#333"
         attributeName="fill" />
    </path>
    <path
       id="path28"
       transform="matrix(0.70710678,-0.70710678,0.70710678,0.70710678,-38.898017,98.417481)"
       d="m 12.883621,87.061485 c 60.033295,-20 113.999999,-21 171.999999,1.047249 l -11.40359,32.850956 c -43.33335,-15 -104.000004,-15 -148.000004,0"
       inkscape:connector-curvature="0"
       style="fill:#333333">
      <animate
         id="animate30"
         repeatCount="indefinite"
         dur="1s"
         begin="0.750s"
         values="#333;#eee;#333;#333"
         attributeName="fill" />
    </path>
    <path
       style="fill:#d7d7d7"
       id="path32"
       d="m 172.90663,20.929741 c 60.03331,-20 114,-21 172,1.04723 l -11.40359,32.85096 c -43.33335,-15 -104,-15 -148,0"
       inkscape:connector-curvature="0">
      <animate
         id="animate34"
         repeatCount="indefinite"
         dur="1s"
         begin="0.875s"
         values="#333;#eee;#333;#333"
         attributeName="fill" />
    </path>
  </g>
  <g
     id="g4654"
     transform="translate(-418.71186,-420.88136)">
    <path
       id="path628-4"
       d="m 820.26258,600.81674 c -6.74629,0.36859 -11.747,9.92118 -13.65682,13.54796 -2.35048,4.46887 -7.87983,17.65816 1.1923,22.2195 9.07212,4.56187 20.27153,-4.2283 23.41169,-10.18847 3.33994,-6.34072 4.79084,-17.36492 -6.0697,-24.17039 -1.72019,-1.07742 -3.32056,-1.49348 -4.87747,-1.4086 z m -137.65213,1.62575 c -11.42349,-0.16349 -21.77265,1.02655 -31.10718,3.25112 -23.62617,5.97079 -40.65101,18.00249 -52.89308,31.4327 -2.71063,-1.49707 -7.08608,-5.47911 -8.34592,-6.71992 -1.5375,-1.51926 -3.31662,-1.61243 -5.20256,-0.65072 -1.88598,0.96168 -2.60132,9.43045 -2.60132,9.43045 -0.78967,-0.22292 -3.61394,-4.76348 -4.87744,-6.61191 -1.26349,-1.85366 -6.45368,0.26933 -7.26192,2.05883 -3.85725,8.5695 -2.25041,20.29446 -0.32523,28.61446 -15.3396,-6.29152 -45.80499,-9.89368 -58.63768,23.08727 -5.71363,14.68797 0.10478,37.67383 19.07622,47.90696 10.64046,5.74769 26.54836,8.35977 43.68016,0.54428 23.21466,41.89345 74.68074,52.88394 108.82104,53.32661 34.22142,0.44443 62.47124,-18.33552 84.10869,-42.37937 35.33161,-39.24761 51.70089,-94.08082 51.70089,-94.08082 -57.67976,-35.81461 -101.86421,-48.7135 -136.13471,-49.20758 z"
       style="fill:#414141"
       inkscape:connector-curvature="0" />
    <path
       transform="matrix(3.5160555,0,0,3.5160555,242.41528,-3858.354)"
       clip-path="url(#clipPath4522)"
       id="path628-4-8-8"
       d="m 164.25142,1268.2337 c -1.91871,0.1049 -3.34096,2.8217 -3.88413,3.8532 -0.6685,1.271 -2.2411,5.0222 0.3391,6.3195 2.5802,1.2974 5.76542,-1.2026 6.65851,-2.8977 0.94991,-1.8034 1.36256,-4.9388 -1.72628,-6.8743 -0.48924,-0.3065 -0.9444,-0.4248 -1.3872,-0.4007 z m -39.14959,0.4624 c -3.24895,-0.046 -6.19235,0.292 -8.84718,0.9247 -6.71951,1.6981 -11.56154,5.1201 -15.04331,8.9397 -0.77092,-0.4257 -2.015358,-1.5583 -2.373658,-1.9112 -0.43728,-0.4321 -0.94328,-0.4586 -1.47966,-0.185 -0.53639,0.2735 -0.73984,2.6821 -0.73984,2.6821 -0.2246,-0.063 -1.02784,-1.3548 -1.38719,-1.8805 -0.35936,-0.5272 -1.83549,0.077 -2.06537,0.5855 -1.09703,2.4373 -0.64003,5.772 -0.0925,8.1383 -4.36273,-1.7894 -13.02738,-2.8139 -16.677112,6.5662 -1.625016,4.1774 0.0298,10.7148 5.425452,13.6252 3.026257,1.6347 7.55061,2.3776 12.42307,0.1548 6.602478,11.9149 21.239928,15.0407 30.949758,15.1666 9.7329,0.1264 17.76742,-5.2148 23.92132,-12.0531 10.04865,-11.1624 14.70423,-26.7575 14.70423,-26.7575 -16.40468,-10.186 -28.97116,-13.8546 -38.71802,-13.9951 z"
       style="fill:none;stroke:#191919;stroke-width:2;stroke-linejoin:round;stroke-miterlimit:4;stroke-dasharray:none;filter:url(#filter4514)"
       inkscape:connector-curvature="0" />
  </g>
</svg>
