<?xml version="1.0" encoding="UTF-8" standalone="no"?>
<!-- Created with Inkscape (http://www.inkscape.org/) -->

<svg
   xmlns:dc="http://purl.org/dc/elements/1.1/"
   xmlns:cc="http://creativecommons.org/ns#"
   xmlns:rdf="http://www.w3.org/1999/02/22-rdf-syntax-ns#"
   xmlns:svg="http://www.w3.org/2000/svg"
   xmlns="http://www.w3.org/2000/svg"
   xmlns:sodipodi="http://sodipodi.sourceforge.net/DTD/sodipodi-0.dtd"
   xmlns:inkscape="http://www.inkscape.org/namespaces/inkscape"
   version="1.1"
   id="svg2"
   width="885.33331"
   height="885.33331"
   viewBox="0 0 885.33331 885.33331"
   sodipodi:docname="ltsp.svg"
   inkscape:version="0.92.3 (2405546, 2018-03-11)">
  <metadata
     id="metadata8">
    <rdf:RDF>
      <cc:Work
         rdf:about="">
        <dc:format>image/svg+xml</dc:format>
        <dc:type
           rdf:resource="http://purl.org/dc/dcmitype/StillImage" />
        <dc:title></dc:title>
      </cc:Work>
    </rdf:RDF>
  </metadata>
  <defs
     id="defs6">
    <marker
       inkscape:stockid="TriangleOutL"
       orient="auto"
       refY="0.0"
       refX="0.0"
       id="TriangleOutL"
       style="overflow:visible"
       inkscape:isstock="true">
      <path
         id="path2057"
         d="M 5.77,0.0 L -2.88,5.0 L -2.88,-5.0 L 5.77,0.0 z "
         style="fill-rule:evenodd;stroke:#000000;stroke-width:1pt;stroke-opacity:1;fill:#000000;fill-opacity:1"
         transform="scale(0.8)" />
    </marker>
    <marker
       inkscape:stockid="TriangleInL"
       orient="auto"
       refY="0.0"
       refX="0.0"
       id="TriangleInL"
       style="overflow:visible"
       inkscape:isstock="true">
      <path
         id="path2048"
         d="M 5.77,0.0 L -2.88,5.0 L -2.88,-5.0 L 5.77,0.0 z "
         style="fill-rule:evenodd;stroke:#000000;stroke-width:1pt;stroke-opacity:1;fill:#000000;fill-opacity:1"
         transform="scale(-0.8)" />
    </marker>
    <marker
       inkscape:stockid="Arrow1Mend"
       orient="auto"
       refY="0.0"
       refX="0.0"
       id="Arrow1Mend"
       style="overflow:visible;"
       inkscape:isstock="true">
      <path
         id="path1924"
         d="M 0.0,0.0 L 5.0,-5.0 L -12.5,0.0 L 5.0,5.0 L 0.0,0.0 z "
         style="fill-rule:evenodd;stroke:#000000;stroke-width:1pt;stroke-opacity:1;fill:#000000;fill-opacity:1"
         transform="scale(0.4) rotate(180) translate(10,0)" />
    </marker>
    <marker
       inkscape:stockid="Arrow1Lend"
       orient="auto"
       refY="0.0"
       refX="0.0"
       id="Arrow1Lend"
       style="overflow:visible;"
       inkscape:isstock="true">
      <path
         id="path1918"
         d="M 0.0,0.0 L 5.0,-5.0 L -12.5,0.0 L 5.0,5.0 L 0.0,0.0 z "
         style="fill-rule:evenodd;stroke:#000000;stroke-width:1pt;stroke-opacity:1;fill:#000000;fill-opacity:1"
         transform="scale(0.8) rotate(180) translate(12.5,0)" />
    </marker>
    <marker
       inkscape:stockid="Arrow2Lstart"
       orient="auto"
       refY="0.0"
       refX="0.0"
       id="Arrow2Lstart"
       style="overflow:visible"
       inkscape:isstock="true">
      <path
         id="path1933"
         style="fill-rule:evenodd;stroke-width:0.625;stroke-linejoin:round;stroke:#000000;stroke-opacity:1;fill:#000000;fill-opacity:1"
         d="M 8.7185878,4.0337352 L -2.2072895,0.016013256 L 8.7185884,-4.0017078 C 6.9730900,-1.6296469 6.9831476,1.6157441 8.7185878,4.0337352 z "
         transform="scale(1.1) translate(1,0)" />
    </marker>
  </defs>
  <sodipodi:namedview
     pagecolor="#ffffff"
     bordercolor="#666666"
     borderopacity="1"
     objecttolerance="10"
     gridtolerance="10"
     guidetolerance="10"
     inkscape:pageopacity="0"
     inkscape:pageshadow="2"
     inkscape:window-width="1920"
     inkscape:window-height="1015"
     id="namedview4"
     showgrid="false"
     inkscape:zoom="0.37698164"
     inkscape:cx="-903.25168"
     inkscape:cy="227.11019"
     inkscape:window-x="0"
     inkscape:window-y="36"
     inkscape:window-maximized="1"
     inkscape:current-layer="svg2"
     showguides="true">
    <inkscape:grid
       type="xygrid"
       id="grid2783" />
  </sodipodi:namedview>
  <circle
     style="opacity:1;fill:#e6e6e6;fill-opacity:1;stroke:#808080;stroke-width:4.33412027;stroke-linecap:round;stroke-linejoin:bevel;stroke-miterlimit:4;stroke-dasharray:none;stroke-opacity:1"
     id="path817"
     cx="441.52539"
     cy="443.81921"
     r="442.83295" />
  <path
     style="opacity:1;fill:#cccccc;fill-opacity:1;stroke:none;stroke-width:8.02051926;stroke-linecap:round;stroke-linejoin:bevel;stroke-miterlimit:4;stroke-dasharray:none;stroke-opacity:1"
     d="M 434.7293,-2.7711 C 298.639,-1.69913 165.6998,66.98726 85.2288,176.56766 21.5232,261.64345 -10.7447,370.0142 -1.3285,476.11624 4.1119,559.26622 34.7518,640.97014 85.4963,706.97853 314.2214,519.39317 542.8871,331.6027 770.88,143.08704 685.7798,49.78125 561.2872,-5.28838 434.7293,-2.7711 Z"
     id="path941"
     inkscape:connector-curvature="0" />
  <flowRoot
     xml:space="preserve"
     id="flowRoot965"
     style="fill:black;fill-opacity:1;stroke:none;font-family:sans-serif;font-style:normal;font-weight:normal;font-size:40px;line-height:1.25;letter-spacing:0px;word-spacing:0px"><flowRegion
       id="flowRegion967"><rect
         id="rect969"
         width="1687.0848"
         height="795.79474"
         x="1119.418"
         y="169.11806" /></flowRegion><flowPara
       id="flowPara971" /></flowRoot>  <g
     id="g16746"
     transform="matrix(0.94707539,0,0,0.94707539,2128.5666,345.55505)">
    <path
       inkscape:connector-curvature="0"
       id="path16720"
       d="m -1830,215.33331 -100,100 -240,-20 210,-199.999997 -190,-190.000003 230,-20 90,90.000003 110,-100.000003 280,-40 -270,260.000003 270,279.999997 -270,-30 z"
       style="fill:none;stroke:#000000;stroke-width:11.60000038;stroke-linecap:butt;stroke-linejoin:miter;stroke-miterlimit:4;stroke-dasharray:none;stroke-opacity:1" />
    <g
       id="g16738">
      <path
         style="fill:#5599ff;fill-opacity:1;stroke:none;stroke-width:1px;stroke-linecap:butt;stroke-linejoin:miter;stroke-opacity:1"
         d="m -1820,-14.666687 100,-100.000003 240,-30 -240,230.000003 z"
         id="path16722"
         inkscape:connector-curvature="0"
         sodipodi:nodetypes="ccccc" />
      <path
         style="fill:#ff5555;fill-opacity:1;stroke:none;stroke-width:1px;stroke-linecap:butt;stroke-linejoin:miter;stroke-opacity:1"
         d="M -1820,-4.666687 V 205.33331 l 120,130 230,20 z"
         id="path16724"
         inkscape:connector-curvature="0"
         sodipodi:nodetypes="ccccc" />
      <path
         style="opacity:1;fill:#71c837;fill-opacity:1;stroke:none;stroke-width:10.87909603;stroke-linecap:round;stroke-linejoin:bevel;stroke-miterlimit:4;stroke-dasharray:none;stroke-opacity:1"
         d="m -1832.2566,-5.520748 c -101.1637,94.708501 -201.845,189.937198 -302.2427,285.457738 -5.8325,3.86172 4.8486,2.36681 7.0411,3.42778 61.5147,7.25063 123.0699,14.3773 184.7156,20.33695 5.5936,-0.31766 8.4782,-7.42893 12.9546,-10.548 32.8848,-32.88144 65.7695,-65.76289 98.6543,-98.64432 -0.2583,-66.58965 0.6237,-133.199526 -0.7675,-199.775535 -0.014,-0.113934 -0.037,-0.874483 -0.3554,-0.254613 z"
         id="path16728"
         inkscape:connector-curvature="0" />
      <path
         style="opacity:1;fill:#ffcc00;fill-opacity:1;stroke:none;stroke-width:10.87909603;stroke-linecap:round;stroke-linejoin:bevel;stroke-miterlimit:4;stroke-dasharray:none;stroke-opacity:1"
         d="m -1953.8056,-98.23449 c -56.2662,3.28929 -112.6073,5.83218 -168.7641,10.63694 -4.6722,0.069 -1.7729,3.27417 0.4374,4.78326 55.6653,53.756958 111.4115,107.446313 167.9603,160.273393 3.2298,2.071548 6.0551,6.997687 10.0691,6.931315 35.7548,-33.086434 71.0841,-66.631273 106.6167,-99.956451 -28.7816,-28.175558 -57.5709,-56.34387 -86.5921,-84.273057 -9.9091,0.53486 -19.8182,1.06973 -29.7273,1.6046 z"
         id="path16732"
         inkscape:connector-curvature="0" />
    </g>
  </g>
</svg>
