<?xml version="1.0" encoding="UTF-8" standalone="no"?>
<!-- Created with Inkscape (http://www.inkscape.org/) -->

<svg
   xmlns:dc="http://purl.org/dc/elements/1.1/"
   xmlns:cc="http://creativecommons.org/ns#"
   xmlns:rdf="http://www.w3.org/1999/02/22-rdf-syntax-ns#"
   xmlns:svg="http://www.w3.org/2000/svg"
   xmlns="http://www.w3.org/2000/svg"
   xmlns:sodipodi="http://sodipodi.sourceforge.net/DTD/sodipodi-0.dtd"
   xmlns:inkscape="http://www.inkscape.org/namespaces/inkscape"
   inkscape:version="0.92.3 (2405546, 2018-03-11)"
   sodipodi:docname="options.svg"
   viewBox="0 0 885.33331 885.33331"
   height="885.33331"
   width="885.33331"
   id="svg2"
   version="1.1">
  <metadata
     id="metadata8">
    <rdf:RDF>
      <cc:Work
         rdf:about="">
        <dc:format>image/svg+xml</dc:format>
        <dc:type
           rdf:resource="http://purl.org/dc/dcmitype/StillImage" />
        <dc:title></dc:title>
      </cc:Work>
    </rdf:RDF>
  </metadata>
  <defs
     id="defs6">
    <marker
       inkscape:stockid="TriangleOutL"
       orient="auto"
       refY="0.0"
       refX="0.0"
       id="TriangleOutL"
       style="overflow:visible"
       inkscape:isstock="true">
      <path
         id="path2057"
         d="M 5.77,0.0 L -2.88,5.0 L -2.88,-5.0 L 5.77,0.0 z "
         style="fill-rule:evenodd;stroke:#000000;stroke-width:1pt;stroke-opacity:1;fill:#000000;fill-opacity:1"
         transform="scale(0.8)" />
    </marker>
    <marker
       inkscape:stockid="TriangleInL"
       orient="auto"
       refY="0.0"
       refX="0.0"
       id="TriangleInL"
       style="overflow:visible"
       inkscape:isstock="true">
      <path
         id="path2048"
         d="M 5.77,0.0 L -2.88,5.0 L -2.88,-5.0 L 5.77,0.0 z "
         style="fill-rule:evenodd;stroke:#000000;stroke-width:1pt;stroke-opacity:1;fill:#000000;fill-opacity:1"
         transform="scale(-0.8)" />
    </marker>
    <marker
       inkscape:stockid="Arrow1Mend"
       orient="auto"
       refY="0.0"
       refX="0.0"
       id="Arrow1Mend"
       style="overflow:visible;"
       inkscape:isstock="true">
      <path
         id="path1924"
         d="M 0.0,0.0 L 5.0,-5.0 L -12.5,0.0 L 5.0,5.0 L 0.0,0.0 z "
         style="fill-rule:evenodd;stroke:#000000;stroke-width:1pt;stroke-opacity:1;fill:#000000;fill-opacity:1"
         transform="scale(0.4) rotate(180) translate(10,0)" />
    </marker>
    <marker
       inkscape:stockid="Arrow1Lend"
       orient="auto"
       refY="0.0"
       refX="0.0"
       id="Arrow1Lend"
       style="overflow:visible;"
       inkscape:isstock="true">
      <path
         id="path1918"
         d="M 0.0,0.0 L 5.0,-5.0 L -12.5,0.0 L 5.0,5.0 L 0.0,0.0 z "
         style="fill-rule:evenodd;stroke:#000000;stroke-width:1pt;stroke-opacity:1;fill:#000000;fill-opacity:1"
         transform="scale(0.8) rotate(180) translate(12.5,0)" />
    </marker>
    <marker
       inkscape:stockid="Arrow2Lstart"
       orient="auto"
       refY="0.0"
       refX="0.0"
       id="Arrow2Lstart"
       style="overflow:visible"
       inkscape:isstock="true">
      <path
         id="path1933"
         style="fill-rule:evenodd;stroke-width:0.625;stroke-linejoin:round;stroke:#000000;stroke-opacity:1;fill:#000000;fill-opacity:1"
         d="M 8.7185878,4.0337352 L -2.2072895,0.016013256 L 8.7185884,-4.0017078 C 6.9730900,-1.6296469 6.9831476,1.6157441 8.7185878,4.0337352 z "
         transform="scale(1.1) translate(1,0)" />
    </marker>
    <clipPath
       clipPathUnits="userSpaceOnUse"
       id="clipPath10475">
      <circle
         style="opacity:1;fill:#2f0000;fill-opacity:0.78431373;stroke:none;stroke-width:39.48544312;stroke-linecap:round;stroke-linejoin:bevel;stroke-miterlimit:4;stroke-dasharray:none;stroke-opacity:1"
         id="circle10477"
         cx="444.62146"
         cy="425.95477"
         r="145.2" />
    </clipPath>
  </defs>
  <sodipodi:namedview
     showguides="true"
     inkscape:current-layer="svg2"
     inkscape:window-maximized="1"
     inkscape:window-y="36"
     inkscape:window-x="0"
     inkscape:cy="183.70294"
     inkscape:cx="1041.9618"
     inkscape:zoom="0.18849082"
     showgrid="true"
     id="namedview4"
     inkscape:window-height="1015"
     inkscape:window-width="1920"
     inkscape:pageshadow="2"
     inkscape:pageopacity="0"
     guidetolerance="10"
     gridtolerance="10"
     objecttolerance="10"
     borderopacity="1"
     bordercolor="#666666"
     pagecolor="#ffffff">
    <inkscape:grid
       type="xygrid"
       id="grid2783" />
  </sodipodi:namedview>
  <circle
     style="opacity:1;fill:#ececec;fill-opacity:1;stroke:#808080;stroke-width:4.33412027;stroke-linecap:round;stroke-linejoin:bevel;stroke-miterlimit:4;stroke-dasharray:none;stroke-opacity:1"
     id="path817"
     cx="441.52539"
     cy="443.81921"
     r="442.83295" />
  <path
     style="opacity:1;fill:#cccccc;fill-opacity:1;stroke:none;stroke-width:8.02051926;stroke-linecap:round;stroke-linejoin:bevel;stroke-miterlimit:4;stroke-dasharray:none;stroke-opacity:1"
     d="M 434.7293,-2.7711 C 298.639,-1.69913 165.6998,66.98726 85.2288,176.56766 21.5232,261.64345 -10.7447,370.0142 -1.3285,476.11624 4.1119,559.26622 34.7518,640.97014 85.4963,706.97853 314.2214,519.39317 542.8871,331.6027 770.88,143.08704 685.7798,49.78125 561.2872,-5.28838 434.7293,-2.7711 Z"
     id="path941"
     inkscape:connector-curvature="0" />
  <flowRoot
     xml:space="preserve"
     id="flowRoot965"
     style="fill:black;fill-opacity:1;stroke:none;font-family:sans-serif;font-style:normal;font-weight:normal;font-size:40px;line-height:1.25;letter-spacing:0px;word-spacing:0px"><flowRegion
       id="flowRegion967"><rect
         id="rect969"
         width="1687.0848"
         height="795.79474"
         x="1119.418"
         y="169.11806" /></flowRegion><flowPara
       id="flowPara971" /></flowRoot>  <path
     sodipodi:type="star"
     style="opacity:1;fill:#5599ff;fill-opacity:1;stroke:none;stroke-width:31.98785019;stroke-linecap:round;stroke-linejoin:bevel;stroke-miterlimit:4;stroke-dasharray:none;stroke-opacity:1"
     id="path3474"
     sodipodi:sides="8"
     sodipodi:cx="439.37387"
     sodipodi:cy="442.39413"
     sodipodi:r1="340.05057"
     sodipodi:r2="255.03796"
     sodipodi:arg1="0.98279372"
     sodipodi:arg2="1.3754928"
     inkscape:flatsided="false"
     inkscape:rounded="0.72"
     inkscape:randomized="0"
     d="M 627.99999,725.33331 C 542.37114,782.41921 589.8242,672.61177 488.86763,692.58352 387.91107,712.55528 473.59903,796.02406 372.68447,775.84115 271.76991,755.65824 382.96987,711.56703 297.46063,654.30212 211.9514,597.03721 213.52059,716.6491 156.4347,631.02025 99.348799,545.39141 209.15623,592.84446 189.18448,491.8879 169.21273,390.93133 85.743943,476.6193 105.92686,375.70473 c 20.18291,-100.91456 64.27411,10.2854 121.53902,-75.22383 57.26491,-85.50924 -62.34697,-83.94004 23.28187,-141.02594 85.62885,-57.0859 38.17579,52.72154 139.13236,32.74979 100.95656,-19.97176 15.2686,-103.440543 116.18316,-83.25763 100.91456,20.18291 -10.28539,64.27411 75.22384,121.53902 85.50923,57.26492 83.94004,-62.34697 141.02594,23.28188 57.08589,85.62884 -52.72154,38.17579 -32.74979,139.13235 19.97175,100.95657 103.44054,15.2686 83.25763,116.18317 -20.18292,100.91456 -64.27412,-10.2854 -121.53903,75.22383 -57.26491,85.50923 62.34697,83.94004 -23.28187,141.02594 z"
     inkscape:transform-center-x="-10.499259"
     inkscape:transform-center-y="-6.438845" />
  <circle
     style="opacity:1;fill:#ececec;fill-opacity:1;stroke:none;stroke-width:39.48544312;stroke-linecap:round;stroke-linejoin:bevel;stroke-miterlimit:4;stroke-dasharray:none;stroke-opacity:1"
     id="path3493"
     cx="438.62146"
     cy="441.95477"
     r="145.2" />
  <path
     transform="translate(-6.000003,15.999997)"
     style="opacity:1;fill:#cccccc;fill-opacity:1;stroke:none;stroke-width:8.02051926;stroke-linecap:round;stroke-linejoin:bevel;stroke-miterlimit:4;stroke-dasharray:none;stroke-opacity:1"
     d="M 434.7293,-2.7711 C 298.639,-1.69913 165.6998,66.98726 85.2288,176.56766 21.5232,261.64345 -10.7447,370.0142 -1.3285,476.11624 4.1119,559.26622 34.7518,640.97014 85.4963,706.97853 314.2214,519.39317 542.8871,331.6027 770.88,143.08704 685.7798,49.78125 561.2872,-5.28838 434.7293,-2.7711 Z"
     id="path941-0"
     inkscape:connector-curvature="0"
     clip-path="url(#clipPath10475)" />
</svg>
